# xmcd
#
# Track frame offsets:
#	150
#	18600
#	29997
#	42043
#	55084
#	68386
#	84703
#	101666
#	112338
#	123477
#	133228
#
# Disc length: 1946 seconds
#
# Revision: 2
# Processed by: cddbd v1.5.2PL0 Copyright (c) Steve Scherf et al.
# Submitted via: EasyCDDAExtractor 16.0.6.1
#
DISCID=9f07980b
DTITLE=Pure Prairie League -  C-103 Two Lane Highway
DYEAR=1975
DGENRE=Country
TTITLE0=Two Lane Highway
TTITLE1=Kentucky Moonshine
TTITLE2=Runner
TTITLE3=Memories
TTITLE4=Kansas City Southern
TTITLE5=Harvest
TTITLE6=Sister's Keeper
TTITLE7=Just Can't Believe It
TTITLE8=Give Us a Rise
TTITLE9=I'll Change Your Flat Tire, Merle
TTITLE10=Pickin' to Beat the Devil
EXTD=
EXTT0=
EXTT1=
EXTT2=
EXTT3=
EXTT4=
EXTT5=
EXTT6=
EXTT7=
EXTT8=
EXTT9=
EXTT10=
PLAYORDER=
